<svg width="733" height="185" viewBox="0 0 733 185" fill="none" xmlns="http://www.w3.org/2000/svg">
<path d="M0 0H35.5646C58.4275 0 73.9004 1.15337 81.9833 3.22943C90.0662 5.30549 96.3015 8.76559 100.458 13.6097C104.615 18.4539 107.387 23.7594 108.31 29.7569C109.465 35.7544 109.927 47.288 109.927 64.5885V128.485C109.927 144.863 109.234 155.705 107.618 161.241C106.001 166.777 103.461 171.16 99.5347 174.158C95.6087 177.388 90.9899 179.464 85.2165 180.617C79.443 181.771 71.1292 182.463 59.8132 182.463H0V0ZM47.5734 31.1409V151.091C54.5016 151.091 58.6585 149.707 60.2751 146.939C61.8916 144.171 62.5844 136.789 62.5844 124.564V53.7469C62.5844 45.4426 62.3535 40.1372 61.8916 37.8304C61.4297 35.5237 60.2751 33.909 58.1966 32.7556C56.1182 31.8329 52.6541 31.1409 47.5734 31.1409Z" fill="black"/>
<path d="M226.089 110.262H166.969V142.556C166.969 149.246 167.431 153.629 168.354 155.705C169.278 157.55 171.126 158.703 173.897 158.703C177.361 158.703 179.67 157.319 180.825 154.782C181.98 152.244 182.673 147.17 182.673 139.788V119.95H225.858V131.023C225.858 140.249 225.165 147.4 224.011 152.244C222.856 157.089 220.085 162.394 215.928 168.161C211.771 173.928 206.228 178.08 199.531 180.848C192.834 183.616 184.751 185 174.821 185C165.121 185 156.808 183.616 149.417 180.848C142.027 178.08 136.254 174.158 132.328 169.314C128.402 164.47 125.4 159.165 123.783 153.398C122.167 147.631 121.474 139.096 121.474 128.024V84.4265C121.474 71.2781 123.321 61.1285 126.785 53.5163C130.25 45.904 136.023 40.1372 144.106 36.2158C152.189 32.2943 161.426 30.2183 171.819 30.2183C184.52 30.2183 195.143 32.525 203.457 37.3691C211.771 42.2133 217.544 48.6721 221.009 56.515C224.473 64.3579 226.089 75.6609 226.089 90.1933V110.262ZM180.363 86.0412V75.1996C180.363 67.3567 179.901 62.5125 179.209 60.2058C178.516 57.8991 176.668 56.7457 174.128 56.7457C170.895 56.7457 169.047 57.6684 168.354 59.5138C167.662 61.3592 167.2 66.6646 167.2 74.9689V85.8105H180.363V86.0412Z" fill="black"/>
<path d="M347.332 0V182.463H299.759V105.648H285.44V182.232H237.867V0H285.44V65.2806H299.759V0H347.332Z" fill="black"/>
<path d="M402.065 90.8854H359.341V80.7357C359.341 69.2021 360.726 60.2058 363.267 53.9776C366.038 47.7494 371.35 42.2133 379.432 37.3691C387.515 32.525 397.908 30.2183 410.84 30.2183C426.313 30.2183 437.86 32.9863 445.712 38.2918C453.564 43.828 458.183 50.5175 459.799 58.3604C461.416 66.2033 462.109 82.5811 462.109 107.263V182.232H417.768V168.853C414.997 174.158 411.302 178.311 406.914 180.848C402.526 183.385 397.215 184.769 391.21 184.769C383.127 184.769 375.968 182.463 369.271 178.08C362.574 173.697 359.341 163.778 359.341 148.784V136.559C359.341 125.486 361.188 117.643 364.652 113.722C368.116 109.57 376.892 104.956 390.979 99.4203C405.99 93.6534 413.842 89.732 414.997 87.6559C416.152 85.5799 416.614 81.4277 416.614 75.1996C416.614 67.3567 415.921 62.2819 414.766 59.9751C413.611 57.6684 411.764 56.515 408.993 56.515C405.99 56.515 403.912 57.4377 403.219 59.5138C402.526 61.5898 402.065 66.6646 402.065 74.9689V90.8854ZM416.614 111.185C409.224 116.49 405.067 120.873 403.912 124.564C402.757 128.254 402.065 133.329 402.065 140.019C402.065 147.862 402.526 152.706 403.681 155.013C404.836 157.319 406.683 158.473 409.685 158.473C412.457 158.473 414.304 157.55 415.228 155.935C416.152 154.09 416.614 149.476 416.614 142.095V111.185Z" fill="black"/>
<path d="M622.38 32.9863L604.136 182.463H554.715C551.944 164.239 548.942 140.249 545.247 110.262C544.092 123.41 542.244 136.559 540.166 149.938L535.085 182.463H485.434L466.035 32.9863H505.294C505.525 36.9078 508.989 65.5113 515.225 118.566C515.687 113.03 519.151 84.6571 525.386 32.9863H563.491L572.728 118.566C574.114 93.6534 577.578 65.0499 583.121 32.9863H622.38Z" fill="black"/>
<path d="M727.458 32.9863L708.983 92.5L733 182.463H689.122L674.804 117.413V182.463H629.309V0H674.804V76.5835L689.122 32.9863H727.458Z" fill="black"/>
</svg>
