<svg width="320" height="300" viewBox="0 0 320 300" fill="none" xmlns="http://www.w3.org/2000/svg">
<path d="M0 217.227H123.809V192.598H94.7724C66.1391 192.598 47.1846 191.386 37.5057 188.56C27.8268 185.734 20.1643 181.292 14.9216 174.428C9.67889 167.564 5.64602 159.489 3.62958 149.394C1.20986 140.108 0 126.783 0 109.017C0 107.402 0 106.191 0 104.576L0 0L319 0V104.576C319 106.191 319 107.806 319 109.017C319 126.38 317.79 140.108 315.774 148.991C313.757 159.085 309.724 167.16 304.482 174.024C299.239 180.888 291.576 185.33 281.898 188.156C272.219 190.982 253.264 192.194 224.631 192.194H195.594V216.824L319.403 216.824V300H0L0 217.227ZM224.631 109.017C239.149 109.017 248.425 108.614 252.458 107.806C256.491 106.999 259.717 104.576 261.33 101.346C262.943 98.1157 264.153 92.8668 264.153 85.1952C264.153 84.3876 264.153 83.5801 264.153 83.1763L54.4437 83.1763C54.4437 83.9838 54.4437 84.7914 54.4437 85.1952C54.4437 93.2705 55.6536 98.5195 57.2668 101.346C59.2832 104.576 62.1062 106.595 66.1391 107.806C70.1719 108.614 79.4475 109.017 93.9659 109.017L224.631 109.017Z" fill="white"/>
</svg>
